<svg preserveAspectRatio="none" overflow="visible" style="display: block;" width="14.2874" height="12.8373" viewBox="0 0 14.2874 12.8373" fill="none" xmlns="http://www.w3.org/2000/svg">
<g id="Group">
<path id="Vector" d="M1.4701 2.72597C2.05084 2.72597 2.52162 2.25519 2.52162 1.67445C2.52162 1.09371 2.05084 0.622924 1.4701 0.622924C0.889361 0.622924 0.418578 1.09371 0.418578 1.67445C0.418578 2.25519 0.889361 2.72597 1.4701 2.72597Z" stroke="#131313" stroke-opacity="0.7" stroke-width="0.837156" stroke-miterlimit="10"/>
<path id="Vector_2" d="M13.8688 0.418578H4.19604V2.93021H13.8688V0.418578Z" stroke="#131313" stroke-opacity="0.7" stroke-width="0.837156" stroke-miterlimit="10"/>
<path id="Vector_3" d="M1.4701 7.47023C2.05084 7.47023 2.52162 6.99945 2.52162 6.41871C2.52162 5.83797 2.05084 5.36719 1.4701 5.36719C0.889361 5.36719 0.418578 5.83797 0.418578 6.41871C0.418578 6.99945 0.889361 7.47023 1.4701 7.47023Z" stroke="#131313" stroke-opacity="0.7" stroke-width="0.837156" stroke-miterlimit="10"/>
<path id="Vector_4" d="M13.8688 5.16284H4.19604V7.67448H13.8688V5.16284Z" stroke="#131313" stroke-opacity="0.7" stroke-width="0.837156" stroke-miterlimit="10"/>
<path id="Vector_5" d="M1.4701 12.2145C2.05084 12.2145 2.52162 11.7437 2.52162 11.163C2.52162 10.5822 2.05084 10.1114 1.4701 10.1114C0.889361 10.1114 0.418578 10.5822 0.418578 11.163C0.418578 11.7437 0.889361 12.2145 1.4701 12.2145Z" stroke="#131313" stroke-opacity="0.7" stroke-width="0.837156" stroke-miterlimit="10"/>
<path id="Vector_6" d="M13.8688 9.9071H4.19604V12.4187H13.8688V9.9071Z" stroke="#131313" stroke-opacity="0.7" stroke-width="0.837156" stroke-miterlimit="10"/>
</g>
</svg>
